<mxfile host="app.diagrams.net" modified="2023-09-19T04:39:19.219Z" agent="Mozilla/5.0 (Windows NT 10.0; Win64; x64) AppleWebKit/537.36 (KHTML, like Gecko) Chrome/117.0.0.0 Safari/537.36" etag="L3mqFs7tJJ9ddN52r7be" version="21.7.5" type="device">
  <diagram id="C5RBs43oDa-KdzZeNtuy" name="Page-1">
    <mxGraphModel dx="2973" dy="824" grid="1" gridSize="10" guides="1" tooltips="1" connect="1" arrows="1" fold="1" page="1" pageScale="1" pageWidth="827" pageHeight="1169" math="0" shadow="0">
      <root>
        <mxCell id="WIyWlLk6GJQsqaUBKTNV-0" />
        <mxCell id="WIyWlLk6GJQsqaUBKTNV-1" parent="WIyWlLk6GJQsqaUBKTNV-0" />
        <mxCell id="Z3gEOktFAiGaEG4-BqM1-15" style="edgeStyle=orthogonalEdgeStyle;rounded=0;orthogonalLoop=1;jettySize=auto;html=1;" edge="1" parent="WIyWlLk6GJQsqaUBKTNV-1" source="Z3gEOktFAiGaEG4-BqM1-5">
          <mxGeometry relative="1" as="geometry">
            <mxPoint x="380" y="85" as="targetPoint" />
          </mxGeometry>
        </mxCell>
        <mxCell id="Z3gEOktFAiGaEG4-BqM1-5" value="&lt;h3&gt;&lt;font face=&quot;Times New Roman&quot; style=&quot;font-size: 24px;&quot;&gt;Patient&lt;/font&gt;&lt;/h3&gt;" style="rounded=1;whiteSpace=wrap;html=1;" vertex="1" parent="WIyWlLk6GJQsqaUBKTNV-1">
          <mxGeometry x="-60" y="60" width="120" height="50" as="geometry" />
        </mxCell>
        <mxCell id="Z3gEOktFAiGaEG4-BqM1-18" style="edgeStyle=orthogonalEdgeStyle;rounded=0;orthogonalLoop=1;jettySize=auto;html=1;" edge="1" parent="WIyWlLk6GJQsqaUBKTNV-1" source="Z3gEOktFAiGaEG4-BqM1-6" target="Z3gEOktFAiGaEG4-BqM1-16">
          <mxGeometry relative="1" as="geometry" />
        </mxCell>
        <mxCell id="Z3gEOktFAiGaEG4-BqM1-6" value="&lt;h3&gt;&lt;font face=&quot;Times New Roman&quot;&gt;1.1&lt;/font&gt;&lt;/h3&gt;" style="swimlane;whiteSpace=wrap;html=1;startSize=23;" vertex="1" parent="WIyWlLk6GJQsqaUBKTNV-1">
          <mxGeometry x="380" y="22" width="200" height="120" as="geometry" />
        </mxCell>
        <mxCell id="Z3gEOktFAiGaEG4-BqM1-10" value="&lt;h3&gt;&lt;font face=&quot;Times New Roman&quot; style=&quot;font-size: 24px;&quot;&gt;Provide Patient&lt;br&gt; &lt;/font&gt;&lt;font face=&quot;Times New Roman&quot; style=&quot;font-size: 24px;&quot;&gt;Information&lt;/font&gt;&lt;/h3&gt;" style="text;html=1;align=center;verticalAlign=middle;resizable=0;points=[];autosize=1;strokeColor=none;fillColor=none;" vertex="1" parent="Z3gEOktFAiGaEG4-BqM1-6">
          <mxGeometry x="10" y="15" width="180" height="100" as="geometry" />
        </mxCell>
        <mxCell id="Z3gEOktFAiGaEG4-BqM1-16" value="&lt;h3&gt;&lt;font style=&quot;font-size: 14px;&quot; face=&quot;Times New Roman&quot;&gt;3.0&lt;/font&gt;&lt;/h3&gt;" style="swimlane;whiteSpace=wrap;html=1;startSize=23;" vertex="1" parent="WIyWlLk6GJQsqaUBKTNV-1">
          <mxGeometry x="380" y="238" width="200" height="120" as="geometry" />
        </mxCell>
        <mxCell id="Z3gEOktFAiGaEG4-BqM1-17" value="&lt;h3&gt;&lt;font style=&quot;font-size: 24px;&quot; face=&quot;Times New Roman&quot;&gt;Assign Related&lt;/font&gt;&lt;/h3&gt;&lt;h3&gt;&lt;font style=&quot;font-size: 24px;&quot; face=&quot;Times New Roman&quot;&gt;Doctor&lt;/font&gt;&lt;/h3&gt;" style="text;html=1;align=center;verticalAlign=middle;resizable=0;points=[];autosize=1;strokeColor=none;fillColor=none;" vertex="1" parent="Z3gEOktFAiGaEG4-BqM1-16">
          <mxGeometry x="11" y="9" width="180" height="110" as="geometry" />
        </mxCell>
        <mxCell id="Z3gEOktFAiGaEG4-BqM1-19" value="&lt;h3&gt;&lt;font style=&quot;font-size: 14px;&quot; face=&quot;Times New Roman&quot;&gt;Assign Doctor Basic On Info&lt;/font&gt;&lt;/h3&gt;" style="text;html=1;strokeColor=none;fillColor=none;align=center;verticalAlign=middle;whiteSpace=wrap;rounded=0;rotation=90;" vertex="1" parent="WIyWlLk6GJQsqaUBKTNV-1">
          <mxGeometry x="453" y="175" width="90" height="30" as="geometry" />
        </mxCell>
        <mxCell id="Z3gEOktFAiGaEG4-BqM1-20" value="&lt;h3&gt;&lt;font style=&quot;font-size: 14px;&quot; face=&quot;Times New Roman&quot;&gt;4.0&lt;/font&gt;&lt;/h3&gt;" style="swimlane;whiteSpace=wrap;html=1;startSize=23;" vertex="1" parent="WIyWlLk6GJQsqaUBKTNV-1">
          <mxGeometry x="381" y="445" width="200" height="128" as="geometry" />
        </mxCell>
        <mxCell id="Z3gEOktFAiGaEG4-BqM1-21" value="&lt;h3&gt;&lt;font face=&quot;Times New Roman&quot;&gt;&lt;span style=&quot;font-size: 24px;&quot;&gt;Patient Medical&lt;/span&gt;&lt;/font&gt;&lt;/h3&gt;&lt;h3&gt;&lt;font face=&quot;Times New Roman&quot;&gt;&lt;span style=&quot;font-size: 24px;&quot;&gt;Information&lt;/span&gt;&lt;/font&gt;&lt;/h3&gt;" style="text;html=1;align=center;verticalAlign=middle;resizable=0;points=[];autosize=1;strokeColor=none;fillColor=none;" vertex="1" parent="Z3gEOktFAiGaEG4-BqM1-20">
          <mxGeometry y="18" width="190" height="110" as="geometry" />
        </mxCell>
        <mxCell id="Z3gEOktFAiGaEG4-BqM1-23" style="edgeStyle=orthogonalEdgeStyle;rounded=0;orthogonalLoop=1;jettySize=auto;html=1;" edge="1" parent="WIyWlLk6GJQsqaUBKTNV-1" source="Z3gEOktFAiGaEG4-BqM1-17" target="Z3gEOktFAiGaEG4-BqM1-20">
          <mxGeometry relative="1" as="geometry" />
        </mxCell>
        <mxCell id="Z3gEOktFAiGaEG4-BqM1-25" value="&lt;h3 style=&quot;border-color: var(--border-color); color: rgb(0, 0, 0); font-style: normal; font-variant-ligatures: normal; font-variant-caps: normal; letter-spacing: normal; orphans: 2; text-align: center; text-indent: 0px; text-transform: none; widows: 2; word-spacing: 0px; -webkit-text-stroke-width: 0px; background-color: rgb(251, 251, 251); text-decoration-thickness: initial; text-decoration-style: initial; text-decoration-color: initial;&quot;&gt;&lt;br&gt;&lt;/h3&gt;" style="text;whiteSpace=wrap;html=1;rotation=90;" vertex="1" parent="WIyWlLk6GJQsqaUBKTNV-1">
          <mxGeometry x="476.32" y="372.82" width="82" height="54.37" as="geometry" />
        </mxCell>
        <mxCell id="Z3gEOktFAiGaEG4-BqM1-26" value="&lt;h3&gt;&lt;font face=&quot;Times New Roman&quot; style=&quot;font-size: 14px;&quot;&gt;D1&lt;/font&gt;&lt;/h3&gt;" style="html=1;dashed=0;whiteSpace=wrap;shape=mxgraph.dfd.dataStoreID;align=left;spacingLeft=3;points=[[0,0],[0.5,0],[1,0],[0,0.5],[1,0.5],[0,1],[0.5,1],[1,1]];" vertex="1" parent="WIyWlLk6GJQsqaUBKTNV-1">
          <mxGeometry x="43" y="492" width="230" height="50" as="geometry" />
        </mxCell>
        <mxCell id="Z3gEOktFAiGaEG4-BqM1-27" value="&lt;h3&gt;&lt;font face=&quot;Times New Roman&quot; style=&quot;font-size: 24px;&quot;&gt;MedicineDatabase&lt;/font&gt;&lt;/h3&gt;" style="text;html=1;strokeColor=none;fillColor=none;align=center;verticalAlign=middle;whiteSpace=wrap;rounded=0;" vertex="1" parent="WIyWlLk6GJQsqaUBKTNV-1">
          <mxGeometry x="73" y="503" width="195" height="30" as="geometry" />
        </mxCell>
        <mxCell id="Z3gEOktFAiGaEG4-BqM1-30" value="&lt;h3&gt;&lt;font face=&quot;Times New Roman&quot; style=&quot;font-size: 14px;&quot;&gt;Medical Details&lt;/font&gt;&lt;/h3&gt;" style="text;html=1;strokeColor=none;fillColor=none;align=center;verticalAlign=middle;whiteSpace=wrap;rounded=0;" vertex="1" parent="WIyWlLk6GJQsqaUBKTNV-1">
          <mxGeometry x="278" y="493" width="100" height="30" as="geometry" />
        </mxCell>
        <mxCell id="Z3gEOktFAiGaEG4-BqM1-31" value="&lt;h3&gt;&lt;font face=&quot;Times New Roman&quot; style=&quot;font-size: 14px;&quot;&gt;Treats the&lt;br&gt;&lt;/font&gt;&lt;font face=&quot;Times New Roman&quot; style=&quot;font-size: 14px;&quot;&gt;Patient&lt;/font&gt;&lt;/h3&gt;" style="text;html=1;strokeColor=none;fillColor=none;align=center;verticalAlign=middle;whiteSpace=wrap;rounded=0;rotation=90;" vertex="1" parent="WIyWlLk6GJQsqaUBKTNV-1">
          <mxGeometry x="454" y="385.01" width="89" height="30" as="geometry" />
        </mxCell>
        <mxCell id="Z3gEOktFAiGaEG4-BqM1-32" style="edgeStyle=orthogonalEdgeStyle;rounded=0;orthogonalLoop=1;jettySize=auto;html=1;entryX=1;entryY=0.5;entryDx=0;entryDy=0;" edge="1" parent="WIyWlLk6GJQsqaUBKTNV-1" source="Z3gEOktFAiGaEG4-BqM1-21" target="Z3gEOktFAiGaEG4-BqM1-27">
          <mxGeometry relative="1" as="geometry" />
        </mxCell>
        <mxCell id="Z3gEOktFAiGaEG4-BqM1-34" value="&lt;h3&gt;&lt;font style=&quot;font-size: 14px;&quot;&gt;D2&lt;/font&gt;&lt;/h3&gt;" style="html=1;dashed=0;whiteSpace=wrap;shape=mxgraph.dfd.dataStoreID;align=left;spacingLeft=3;points=[[0,0],[0.5,0],[1,0],[0,0.5],[1,0.5],[0,1],[0.5,1],[1,1]];" vertex="1" parent="WIyWlLk6GJQsqaUBKTNV-1">
          <mxGeometry x="362" y="676" width="230" height="50" as="geometry" />
        </mxCell>
        <mxCell id="Z3gEOktFAiGaEG4-BqM1-58" style="rounded=0;orthogonalLoop=1;jettySize=auto;html=1;entryX=0.001;entryY=0.662;entryDx=0;entryDy=0;entryPerimeter=0;exitX=0.694;exitY=1.3;exitDx=0;exitDy=0;exitPerimeter=0;" edge="1" parent="WIyWlLk6GJQsqaUBKTNV-1" source="Z3gEOktFAiGaEG4-BqM1-36" target="Z3gEOktFAiGaEG4-BqM1-54">
          <mxGeometry relative="1" as="geometry" />
        </mxCell>
        <mxCell id="Z3gEOktFAiGaEG4-BqM1-36" value="&lt;h3&gt;&lt;font face=&quot;Times New Roman&quot; style=&quot;font-size: 24px;&quot;&gt;Patient Database&lt;/font&gt;&lt;/h3&gt;" style="text;html=1;strokeColor=none;fillColor=none;align=center;verticalAlign=middle;whiteSpace=wrap;rounded=0;" vertex="1" parent="WIyWlLk6GJQsqaUBKTNV-1">
          <mxGeometry x="369" y="687" width="235" height="30" as="geometry" />
        </mxCell>
        <mxCell id="Z3gEOktFAiGaEG4-BqM1-43" style="edgeStyle=orthogonalEdgeStyle;rounded=0;orthogonalLoop=1;jettySize=auto;html=1;entryX=1;entryY=0.5;entryDx=0;entryDy=0;" edge="1" parent="WIyWlLk6GJQsqaUBKTNV-1" source="Z3gEOktFAiGaEG4-BqM1-42" target="Z3gEOktFAiGaEG4-BqM1-16">
          <mxGeometry relative="1" as="geometry" />
        </mxCell>
        <mxCell id="Z3gEOktFAiGaEG4-BqM1-42" value="&lt;h3&gt;&lt;font face=&quot;Times New Roman&quot; style=&quot;font-size: 24px;&quot;&gt;Doctor&lt;/font&gt;&lt;/h3&gt;" style="rounded=1;whiteSpace=wrap;html=1;" vertex="1" parent="WIyWlLk6GJQsqaUBKTNV-1">
          <mxGeometry x="730" y="273" width="120" height="50" as="geometry" />
        </mxCell>
        <mxCell id="Z3gEOktFAiGaEG4-BqM1-46" style="edgeStyle=orthogonalEdgeStyle;rounded=0;orthogonalLoop=1;jettySize=auto;html=1;entryX=0.5;entryY=1;entryDx=0;entryDy=0;" edge="1" parent="WIyWlLk6GJQsqaUBKTNV-1" source="Z3gEOktFAiGaEG4-BqM1-44" target="Z3gEOktFAiGaEG4-BqM1-42">
          <mxGeometry relative="1" as="geometry" />
        </mxCell>
        <mxCell id="Z3gEOktFAiGaEG4-BqM1-67" style="edgeStyle=orthogonalEdgeStyle;rounded=0;orthogonalLoop=1;jettySize=auto;html=1;entryX=0;entryY=0.5;entryDx=0;entryDy=0;" edge="1" parent="WIyWlLk6GJQsqaUBKTNV-1" source="Z3gEOktFAiGaEG4-BqM1-44" target="Z3gEOktFAiGaEG4-BqM1-63">
          <mxGeometry relative="1" as="geometry" />
        </mxCell>
        <mxCell id="Z3gEOktFAiGaEG4-BqM1-44" value="&lt;h3&gt;&lt;font face=&quot;Times New Roman&quot;&gt;1.0&lt;/font&gt;&lt;/h3&gt;" style="swimlane;whiteSpace=wrap;html=1;startSize=23;" vertex="1" parent="WIyWlLk6GJQsqaUBKTNV-1">
          <mxGeometry x="690" y="400" width="200" height="120" as="geometry" />
        </mxCell>
        <mxCell id="Z3gEOktFAiGaEG4-BqM1-45" value="&lt;h3&gt;&lt;font face=&quot;Times New Roman&quot;&gt;&lt;span style=&quot;font-size: 24px;&quot;&gt;Recruit New&lt;/span&gt;&lt;/font&gt;&lt;/h3&gt;&lt;h3&gt;&lt;font face=&quot;Times New Roman&quot;&gt;&lt;span style=&quot;font-size: 24px;&quot;&gt;Doctor&lt;/span&gt;&lt;/font&gt;&lt;/h3&gt;" style="text;html=1;align=center;verticalAlign=middle;resizable=0;points=[];autosize=1;strokeColor=none;fillColor=none;" vertex="1" parent="Z3gEOktFAiGaEG4-BqM1-44">
          <mxGeometry x="20" y="10" width="150" height="110" as="geometry" />
        </mxCell>
        <mxCell id="Z3gEOktFAiGaEG4-BqM1-47" value="&lt;h3&gt;&lt;font face=&quot;Times New Roman&quot; style=&quot;font-size: 14px;&quot;&gt;Appointed Doctor&lt;/font&gt;&lt;/h3&gt;" style="text;html=1;align=center;verticalAlign=middle;resizable=0;points=[];autosize=1;strokeColor=none;fillColor=none;" vertex="1" parent="WIyWlLk6GJQsqaUBKTNV-1">
          <mxGeometry x="590" y="253" width="130" height="60" as="geometry" />
        </mxCell>
        <mxCell id="Z3gEOktFAiGaEG4-BqM1-50" style="edgeStyle=orthogonalEdgeStyle;rounded=0;orthogonalLoop=1;jettySize=auto;html=1;entryX=0.467;entryY=1;entryDx=0;entryDy=0;entryPerimeter=0;" edge="1" parent="WIyWlLk6GJQsqaUBKTNV-1" source="Z3gEOktFAiGaEG4-BqM1-48" target="Z3gEOktFAiGaEG4-BqM1-45">
          <mxGeometry relative="1" as="geometry" />
        </mxCell>
        <mxCell id="Z3gEOktFAiGaEG4-BqM1-56" style="edgeStyle=orthogonalEdgeStyle;rounded=0;orthogonalLoop=1;jettySize=auto;html=1;entryX=0.5;entryY=0;entryDx=0;entryDy=0;exitX=1;exitY=0.5;exitDx=0;exitDy=0;" edge="1" parent="WIyWlLk6GJQsqaUBKTNV-1" source="Z3gEOktFAiGaEG4-BqM1-48" target="Z3gEOktFAiGaEG4-BqM1-53">
          <mxGeometry relative="1" as="geometry" />
        </mxCell>
        <mxCell id="Z3gEOktFAiGaEG4-BqM1-75" style="edgeStyle=orthogonalEdgeStyle;rounded=0;orthogonalLoop=1;jettySize=auto;html=1;exitX=0;exitY=0.414;exitDx=0;exitDy=0;exitPerimeter=0;entryX=0;entryY=0.414;entryDx=0;entryDy=0;entryPerimeter=0;" edge="1" parent="WIyWlLk6GJQsqaUBKTNV-1" target="Z3gEOktFAiGaEG4-BqM1-48">
          <mxGeometry relative="1" as="geometry">
            <mxPoint x="660" y="621" as="sourcePoint" />
          </mxGeometry>
        </mxCell>
        <mxCell id="Z3gEOktFAiGaEG4-BqM1-48" value="&lt;h3&gt;&lt;font face=&quot;Times New Roman&quot; style=&quot;font-size: 24px;&quot;&gt;Admin&lt;/font&gt;&lt;/h3&gt;" style="rounded=1;whiteSpace=wrap;html=1;" vertex="1" parent="WIyWlLk6GJQsqaUBKTNV-1">
          <mxGeometry x="720" y="600" width="120" height="50" as="geometry" />
        </mxCell>
        <mxCell id="Z3gEOktFAiGaEG4-BqM1-51" value="&lt;h3&gt;&lt;font face=&quot;Times New Roman&quot; style=&quot;font-size: 14px;&quot;&gt;New Doctor Details&lt;/font&gt;&lt;/h3&gt;" style="text;html=1;strokeColor=none;fillColor=none;align=center;verticalAlign=middle;whiteSpace=wrap;rounded=0;rotation=90;" vertex="1" parent="WIyWlLk6GJQsqaUBKTNV-1">
          <mxGeometry x="760" y="545" width="80" height="30" as="geometry" />
        </mxCell>
        <mxCell id="Z3gEOktFAiGaEG4-BqM1-53" value="&lt;h3&gt;&lt;font face=&quot;Times New Roman&quot;&gt;5.0&lt;/font&gt;&lt;/h3&gt;" style="swimlane;whiteSpace=wrap;html=1;startSize=23;" vertex="1" parent="WIyWlLk6GJQsqaUBKTNV-1">
          <mxGeometry x="780" y="780" width="200" height="120" as="geometry" />
        </mxCell>
        <mxCell id="Z3gEOktFAiGaEG4-BqM1-54" value="&lt;h3&gt;&lt;font face=&quot;Times New Roman&quot;&gt;&lt;span style=&quot;font-size: 24px;&quot;&gt;Generate Report&lt;/span&gt;&lt;/font&gt;&lt;/h3&gt;" style="text;html=1;align=center;verticalAlign=middle;resizable=0;points=[];autosize=1;strokeColor=none;fillColor=none;" vertex="1" parent="Z3gEOktFAiGaEG4-BqM1-53">
          <mxGeometry y="30" width="200" height="70" as="geometry" />
        </mxCell>
        <mxCell id="Z3gEOktFAiGaEG4-BqM1-70" style="edgeStyle=orthogonalEdgeStyle;rounded=0;orthogonalLoop=1;jettySize=auto;html=1;" edge="1" parent="Z3gEOktFAiGaEG4-BqM1-53">
          <mxGeometry relative="1" as="geometry">
            <mxPoint x="200" y="70" as="targetPoint" />
            <mxPoint x="340" y="70" as="sourcePoint" />
          </mxGeometry>
        </mxCell>
        <mxCell id="Z3gEOktFAiGaEG4-BqM1-60" style="edgeStyle=orthogonalEdgeStyle;rounded=0;orthogonalLoop=1;jettySize=auto;html=1;entryX=0.5;entryY=0;entryDx=0;entryDy=0;" edge="1" parent="WIyWlLk6GJQsqaUBKTNV-1" source="Z3gEOktFAiGaEG4-BqM1-21" target="Z3gEOktFAiGaEG4-BqM1-34">
          <mxGeometry relative="1" as="geometry" />
        </mxCell>
        <mxCell id="Z3gEOktFAiGaEG4-BqM1-61" value="Text" style="text;html=1;strokeColor=none;fillColor=none;align=center;verticalAlign=middle;whiteSpace=wrap;rounded=0;" vertex="1" parent="WIyWlLk6GJQsqaUBKTNV-1">
          <mxGeometry x="430" y="220" width="60" height="30" as="geometry" />
        </mxCell>
        <mxCell id="Z3gEOktFAiGaEG4-BqM1-62" value="&lt;h3&gt;&lt;font face=&quot;Times New Roman&quot; style=&quot;font-size: 14px;&quot;&gt;Patient Details&lt;/font&gt;&lt;/h3&gt;" style="text;html=1;strokeColor=none;fillColor=none;align=center;verticalAlign=middle;whiteSpace=wrap;rounded=0;rotation=90;" vertex="1" parent="WIyWlLk6GJQsqaUBKTNV-1">
          <mxGeometry x="443" y="610" width="100" height="30" as="geometry" />
        </mxCell>
        <mxCell id="Z3gEOktFAiGaEG4-BqM1-63" value="&lt;h3&gt;&lt;font style=&quot;font-size: 14px;&quot;&gt;D3&lt;/font&gt;&lt;/h3&gt;" style="html=1;dashed=0;whiteSpace=wrap;shape=mxgraph.dfd.dataStoreID;align=left;spacingLeft=3;points=[[0,0],[0.5,0],[1,0],[0,0.5],[1,0.5],[0,1],[0.5,1],[1,1]];" vertex="1" parent="WIyWlLk6GJQsqaUBKTNV-1">
          <mxGeometry x="998" y="435" width="230" height="50" as="geometry" />
        </mxCell>
        <mxCell id="Z3gEOktFAiGaEG4-BqM1-64" value="&lt;h3&gt;&lt;font face=&quot;Times New Roman&quot; style=&quot;font-size: 24px;&quot;&gt;Doctor Database&lt;/font&gt;&lt;/h3&gt;" style="text;html=1;strokeColor=none;fillColor=none;align=center;verticalAlign=middle;whiteSpace=wrap;rounded=0;" vertex="1" parent="WIyWlLk6GJQsqaUBKTNV-1">
          <mxGeometry x="1006" y="445" width="235" height="30" as="geometry" />
        </mxCell>
        <mxCell id="Z3gEOktFAiGaEG4-BqM1-68" value="&lt;h3&gt;&lt;font face=&quot;Times New Roman&quot; style=&quot;font-size: 14px;&quot;&gt;Doctor Information&lt;/font&gt;&lt;/h3&gt;" style="text;html=1;strokeColor=none;fillColor=none;align=center;verticalAlign=middle;whiteSpace=wrap;rounded=0;" vertex="1" parent="WIyWlLk6GJQsqaUBKTNV-1">
          <mxGeometry x="899" y="427.19" width="80" height="30" as="geometry" />
        </mxCell>
        <mxCell id="Z3gEOktFAiGaEG4-BqM1-71" value="" style="endArrow=none;html=1;rounded=0;entryX=0.537;entryY=1.009;entryDx=0;entryDy=0;entryPerimeter=0;" edge="1" parent="WIyWlLk6GJQsqaUBKTNV-1" target="Z3gEOktFAiGaEG4-BqM1-63">
          <mxGeometry width="50" height="50" relative="1" as="geometry">
            <mxPoint x="1122" y="850" as="sourcePoint" />
            <mxPoint x="1120" y="490" as="targetPoint" />
          </mxGeometry>
        </mxCell>
        <mxCell id="Z3gEOktFAiGaEG4-BqM1-72" value="" style="endArrow=none;html=1;rounded=0;entryX=0.5;entryY=1;entryDx=0;entryDy=0;" edge="1" parent="WIyWlLk6GJQsqaUBKTNV-1" target="Z3gEOktFAiGaEG4-BqM1-5">
          <mxGeometry width="50" height="50" relative="1" as="geometry">
            <mxPoint y="810" as="sourcePoint" />
            <mxPoint x="30" y="260" as="targetPoint" />
          </mxGeometry>
        </mxCell>
        <mxCell id="Z3gEOktFAiGaEG4-BqM1-73" value="" style="endArrow=none;html=1;rounded=0;" edge="1" parent="WIyWlLk6GJQsqaUBKTNV-1">
          <mxGeometry width="50" height="50" relative="1" as="geometry">
            <mxPoint y="810" as="sourcePoint" />
            <mxPoint x="660" y="810" as="targetPoint" />
          </mxGeometry>
        </mxCell>
        <mxCell id="Z3gEOktFAiGaEG4-BqM1-74" value="" style="endArrow=none;html=1;rounded=0;" edge="1" parent="WIyWlLk6GJQsqaUBKTNV-1">
          <mxGeometry width="50" height="50" relative="1" as="geometry">
            <mxPoint x="660" y="810" as="sourcePoint" />
            <mxPoint x="660" y="620" as="targetPoint" />
          </mxGeometry>
        </mxCell>
      </root>
    </mxGraphModel>
  </diagram>
</mxfile>
